<svg xmlns="http://www.w3.org/2000/svg" xmlns:xlink="http://www.w3.org/1999/xlink" width="600" height="100" viewBox="0 0 600 100">
  <defs>
    <clipPath id="clip-path">
      <rect id="Rectangle_314" data-name="Rectangle 314" width="240" height="35.645" fill="#fff"/>
    </clipPath>
    <clipPath id="clip-Artboard_1">
      <rect width="600" height="100"/>
    </clipPath>
  </defs>
  <g id="Artboard_1" data-name="Artboard – 1" clip-path="url(#clip-Artboard_1)">
    <g id="Group_849" data-name="Group 849" transform="translate(180 32)">
      <g id="Group_448" data-name="Group 448" clip-path="url(#clip-path)">
        <path id="Path_7284" data-name="Path 7284" d="M380.307,17.962c0,11.2,11.29,17.682,25,17.682a27.415,27.415,0,0,0,14.185-3.366v-3.12c-3.321,1.9-5.605,3.487-12.428,3.487-11.774,0-17.394-6.883-17.394-14.736,0-8.184,4.888-13.911,16.248-14.692,7.107-.488,9.89,1.468,13.573,3.548V3.645A27.2,27.2,0,0,0,405.243.28c-13.646,0-24.936,6.546-24.936,17.682" transform="translate(-318.073 -0.234)" fill="#fff"/>
        <path id="Path_7285" data-name="Path 7285" d="M710.135,17.9c2.989-.557,7.779-3.028,7.779-7.045C717.914,3.57,709.075,2,703.475,2H686.223a3.568,3.568,0,0,0-3.568,3.55l-.135,27.9a3.567,3.567,0,0,0,3.567,3.585h19.372c7.561,0,15.809-2.449,15.809-9.987,0-5.746-6.5-8.773-11.133-9.144m-17.878-12.6h.062c-.022,0-.046,0-.068,0h.006m-5.135,6.184c-.005-.076-.007-.152-.01-.226,0-.053,0-.108,0-.164v-.05c0-.068,0-.132,0-.2s.007-.152.012-.226.014-.152.022-.223a5.668,5.668,0,0,1,4.635-5.044H703.3a20.812,20.812,0,0,1,3.015.173c.11.031.221.068.328.106a5.173,5.173,0,0,1,.607.264,5.8,5.8,0,0,1,3.1,5.194v.015a5.787,5.787,0,0,1-3.038,5.138,4.389,4.389,0,0,1-.4.192,5.222,5.222,0,0,1-.824.276l-.071.017h0a19.651,19.651,0,0,1-2.257.135l-3.042,0-8.088-.022c-.1,0-.19,0-.284-.008-.073,0-.148-.01-.221-.018-.161-.017-.323-.038-.479-.069-.105-.02-.207-.043-.311-.071a5.684,5.684,0,0,1-4.19-4.968c-.01-.071-.015-.147-.022-.221m26.05,15.538a6.89,6.89,0,0,1-3.361,6.047,4.779,4.779,0,0,1-.442.225,5.388,5.388,0,0,1-.816.3c-.34.046-.686.083-1.036.111-.681.055-1.373.074-2.059.074H696.73l-3.35-.007c-.107,0-.209,0-.313-.011-.083-.007-.165-.012-.246-.022a5.049,5.049,0,0,1-.528-.081c-.115-.025-.231-.051-.345-.082a6.588,6.588,0,0,1-4.635-5.847c-.009-.075-.014-.156-.02-.238s-.01-.167-.013-.25,0-.15,0-.233v-.056c0-.081,0-.155,0-.231.005-.091.007-.18.014-.268s.014-.179.024-.263a6.52,6.52,0,0,1,5.126-5.934c.039,0,.078-.013.117-.017a4.486,4.486,0,0,1,.559-.058l.036,0c.019,0,.037,0,.054,0,.063,0,.131,0,.2,0H705.52c.323,0,.646,0,.967.013a.059.059,0,0,1,.017,0q.191.005.382.015c.364.017.724.04,1.079.076l.066.012a5.729,5.729,0,0,1,1.045.292,5.339,5.339,0,0,1,.671.312,6.894,6.894,0,0,1,3.425,6.11Z" transform="translate(-570.832 -1.673)" fill="#fff"/>
        <path id="Path_7286" data-name="Path 7286" d="M47.662,4.851l-.008-.025c-.892-2.3-3.437-4.533-5.751-2.47a13.733,13.733,0,0,0-2.344,3.953c-1.637,3.614-2.909,7.509-4.46,11.177-.942,2.228-2.465,6-4.908,6.783-4.262,1.363-6.006-1.037-7.516-4.227-2-4.232-3.436-8.744-5.353-13.013-1.011-2.251-2.714-6.524-5.9-5.048C9.8,2.735,9.02,4.71,8.476,6.287,4.719,17.177,3.721,24.231.044,35.191a.294.294,0,0,0-.014.068L0,35.612a.292.292,0,0,0,.225.308l2.725.626a.292.292,0,0,0,.345-.2l5.237-17.7c1.033-3.219,3.739-5.716,7.179-3.734,2.971,1.712,5.557,9.92,6.953,13.189,1.047,2.452,3.542,11.18,7.325,8.226,2.515-1.964,5.5-12.19,6.948-15.5,1.424-3.256,4.035-8.655,8.575-6.165,2.5,1.369,4.152,8.554,5,11.321,1.513,4.929,1.524,5.234,3.024,10.166a.293.293,0,0,0,.358.2l2.692-.745a.292.292,0,0,0,.2-.365Z" transform="translate(0 -1.288)" fill="#fff"/>
        <path id="Path_7287" data-name="Path 7287" d="M980.505,2.041a3.606,3.606,0,0,0-.516.117q-.166.052-.327.119a3.575,3.575,0,0,0-2.178,3.089q0,.092,0,.183l-.127,26.2v1.8a3.555,3.555,0,0,0,2.393,3.128,3.619,3.619,0,0,0,.775.174l3.469.021,12.09.165,15.407.165V33.782H1005.6c-.031,0-.064.007-.1.008l-.1.008c-.1.005-1.838.007-1.941.007l-.595,0-2.214,0-10.542-.025c-.1,0-.2,0-.3-.012-.079,0-.16-.01-.238-.02a5.165,5.165,0,0,1-.512-.079c-.112-.025-.223-.051-.334-.083a5.282,5.282,0,0,1-.982-.372,6.636,6.636,0,0,1-3.51-5.371c-.01-.081-.015-.169-.021-.256s-.01-.174-.013-.261c0-.061,0-.124,0-.19v-.056c0-.079,0-.152,0-.226s.006-.177.015-.263.013-.175.023-.258a6.376,6.376,0,0,1,4.967-5.83c.038,0,.074-.013.114-.017a4.479,4.479,0,0,1,.54-.056l.036,0c.016,0,.035,0,.051,0,.061,0,.125,0,.192,0l1.173,0,.811,0h10.486c.066,0,.132,0,.2,0,.1,0,.2.01.3.02h.382c.065,0,1.767,0,1.828.005s.127,0,.188.01a.046.046,0,0,1,.015,0,3.734,3.734,0,0,1,.385.043h5.443V17.2h-5.841c-.033,0-.066.005-.1.007-.1,0-1.838.007-1.941.007l-2.809,0-10.542-.021c-.1,0-.2-.005-.3-.01-.079,0-.16-.01-.238-.018-.173-.017-.345-.04-.512-.071-.112-.022-.223-.045-.334-.073a5.879,5.879,0,0,1-1.479-.577s0,0,0,0a5.934,5.934,0,0,1-3.011-4.538c-.01-.073-.015-.15-.021-.228s-.01-.155-.013-.233c0-.054,0-.111,0-.169v-.051c0-.069,0-.135,0-.2s.006-.157.015-.233.013-.157.023-.23a5.933,5.933,0,0,1,4.967-5.194c.038-.005.074-.012.114-.015l.023,0A4.733,4.733,0,0,1,989.9,5.3c.016,0,.035,0,.051,0,.061,0,.125,0,.192,0l1.173.005h11.3c.066,0,.132,0,.2,0h8.678V2h-28.8a18.2,18.2,0,0,0-2.178.041" transform="translate(-817.417 -1.673)" fill="#fff"/>
        <path id="Path_7288" data-name="Path 7288" d="M1261.187.041a3.6,3.6,0,0,0-.516.117q-.166.052-.327.119a3.575,3.575,0,0,0-2.178,3.089q0,.092,0,.183l-.127,26.2v1.8a3.555,3.555,0,0,0,2.393,3.128,3.62,3.62,0,0,0,.775.174l3.469.021,12.09.165,15.407.165V31.782h-7.52c-.031,0-.064.007-.1.008l-.1.008c-.1.005-.2.007-.3.007l-.6,0-2.214,0-10.542-.025c-.1,0-.2,0-.3-.012-.079,0-.16-.01-.238-.02a5.165,5.165,0,0,1-.512-.079c-.113-.025-.223-.051-.334-.083a5.281,5.281,0,0,1-.982-.372,6.637,6.637,0,0,1-3.51-5.371c-.01-.081-.015-.169-.021-.256s-.01-.174-.013-.261c0-.061,0-.124,0-.19v-.056c0-.079,0-.152,0-.226s.007-.177.015-.263.013-.175.023-.258a6.376,6.376,0,0,1,4.967-5.83c.038,0,.074-.013.114-.017a4.478,4.478,0,0,1,.54-.056l.036,0c.017,0,.035,0,.051,0,.061,0,.126,0,.192,0l1.173,0,.812,0h10.485c.066,0,.132,0,.2,0,.1,0,.2.01.3.02h.382c.064,0,.131,0,.192.005s.127,0,.188.01a.046.046,0,0,1,.015,0,3.74,3.74,0,0,1,.385.043h7.079V15.2h-7.477c-.033,0-.066.005-.1.007-.1,0-.2.007-.3.007l-2.809,0L1270.8,15.19c-.1,0-.2-.005-.3-.01-.079,0-.16-.01-.238-.018-.174-.017-.345-.04-.512-.071-.113-.022-.223-.045-.334-.073a5.881,5.881,0,0,1-1.479-.577s0,0,0,0a5.934,5.934,0,0,1-3.011-4.538c-.01-.073-.015-.15-.021-.228s-.01-.155-.013-.233c0-.054,0-.111,0-.169V9.221c0-.069,0-.135,0-.2s.007-.157.015-.233.013-.157.023-.23a5.932,5.932,0,0,1,4.967-5.194c.038-.005.074-.012.114-.015l.023,0a4.716,4.716,0,0,1,.553-.048c.017,0,.035,0,.051,0,.061,0,.126,0,.192,0L1272,3.3h11.3c.066,0,.132,0,.2,0h8.678V0h-28.8a18.2,18.2,0,0,0-2.178.041" transform="translate(-1052.168)" fill="#fff"/>
      </g>
    </g>
  </g>
</svg>
